<?xml version="1.0"?>
<svg xmlns="http://www.w3.org/2000/svg" height="512px" viewBox="0 -29 512.001 512" width="512px"><path d="m256 155.285156c-28.539062 0-51.761719 23.21875-51.761719 51.761719 0 28.539063 23.222657 51.757813 51.761719 51.757813s51.761719-23.21875 51.761719-51.757813c0-28.542969-23.222657-51.761719-51.761719-51.761719zm0 88.519532c-20.269531 0-36.761719-16.488282-36.761719-36.757813s16.492188-36.761719 36.761719-36.761719 36.761719 16.492188 36.761719 36.761719-16.492188 36.757813-36.761719 36.757813zm239.429688 15c9.136718 0 16.570312-7.433594 16.570312-16.570313v-4.25c0-15.042969-12.234375-27.277344-27.277344-27.277344h-24.277344c-4.144531 0-7.5 3.355469-7.5 7.5 0 4.140625 3.355469 7.5 7.5 7.5h24.277344c6.769532 0 12.277344 5.507813 12.277344 12.277344v4.25c0 .867187-.703125 1.570313-1.570312 1.570313h-142.628907v-18.097657h72.878907c4.144531 0 7.5-3.359375 7.5-7.5 0-4.144531-3.355469-7.5-7.5-7.5h-72.878907v-47.34375c1.832031.597657 3.714844.910157 5.59375.910157 2.640625 0 5.273438-.589844 7.726563-1.765626 4.328125-2.066406 7.589844-5.699218 9.1875-10.21875l6.214844-17.589843c3.296874-9.335938-1.613282-19.613281-10.949219-22.910157l-88.621094-31.296874c-5.984375-2.117188-12.1875-3.457032-18.453125-4.0625v-17.136719h47.824219c7.960937 0 14.4375-6.476563 14.4375-14.4375v-23.351563c0-7.957031-6.476563-14.433594-14.4375-14.433594h-47.84375c-.226563-3.941406-3.484375-7.070312-7.480469-7.070312-4.140625 0-7.5 3.359375-7.5 7.5v68.929688c-6.261719.605468-12.464844 1.949218-18.449219 4.0625l-88.621093 31.296874c-9.335938 3.296876-14.246094 13.574219-10.953126 22.910157l6.214844 17.589843c1.597656 4.519532 4.859375 8.152344 9.1875 10.21875 4.199219 2.007813 8.914063 2.296876 13.324219.847657v47.347656h-131.925781c-15.039063.003906-27.277344 12.238281-27.277344 27.28125v4.25c0 9.136719 7.433594 16.570313 16.574219 16.570313h11.488281v148.40625h-4.953125c-12.742187 0-23.109375 10.367187-23.109375 23.109374v8.460938c0 8.851562 7.203125 16.058594 16.058594 16.058594h34.539062c4.144532 0 7.5-3.359375 7.5-7.5 0-4.144532-3.355468-7.5-7.5-7.5h-34.539062c-.582032 0-1.058594-.476563-1.058594-1.058594v-8.460938c0-4.472656 3.636719-8.109374 8.109375-8.109374h465.78125c4.472656 0 8.109375 3.636718 8.109375 8.109374v8.460938c0 .582031-.476562 1.058594-1.058594 1.058594h-409.664062c-4.140625 0-7.5 3.355468-7.5 7.5 0 4.140625 3.359375 7.5 7.5 7.5h409.664062c8.855469 0 16.058594-7.207032 16.058594-16.058594v-8.460938c0-12.742187-10.363281-23.109374-23.105469-23.109374h-4.953125v-148.40625zm-231.929688-236.734376h47.261719v22.222657h-47.261719zm-108.898438 127.023438c-1.003906.355469-1.84375.078125-2.257812-.117188-.410156-.199218-1.15625-.679687-1.507812-1.683593l-6.214844-17.589844c-.542969-1.535156.265625-3.226563 1.800781-3.769531l88.625-31.300782c6.75-2.382812 13.84375-3.578124 20.9375-3.578124h.015625.015625c7.09375 0 14.1875 1.195312 20.941406 3.578124l88.621094 31.300782c1.535156.539062 2.34375 2.230468 1.800781 3.769531l-6.214844 17.589844c-.542968 1.535156-2.230468 2.34375-3.765624 1.800781l-88.625-31.296875c-8.238282-2.910156-17.308594-2.910156-25.546876 0zm-138.027343 94.710938c-.867188 0-1.574219-.703126-1.574219-1.570313v-4.25c0-6.769531 5.507812-12.277344 12.277344-12.277344h131.921875v18.097657zm26.488281 69.859374h111.730469c2.429687 0 4.40625 1.976563 4.40625 4.410157v26.675781c0 2.429688-1.976563 4.40625-4.40625 4.40625h-111.730469zm205.4375 93.546876h-33.925781v-65c0-3.644532 2.191406-6.875 5.574219-8.222657 9.179687-3.664062 18.730468-5.847656 28.351562-6.601562zm48.925781 0h-33.925781v-79.824219c9.625.753906 19.171875 2.9375 28.351562 6.601562 3.386719 1.347657 5.574219 4.578125 5.574219 8.222657zm171.511719-58.054688h-111.730469c-2.429687 0-4.40625-1.976562-4.40625-4.410156v-26.675782c0-2.429687 1.976563-4.40625 4.40625-4.40625h111.730469zm0-50.492188h-111.730469c-10.703125 0-19.40625 8.707032-19.40625 19.410157v26.675781c0 10.699219 8.703125 19.40625 19.40625 19.40625h111.730469v43.058594h-156.511719v-65.003906c0-9.820313-5.894531-18.515626-15.015625-22.15625-26.703125-10.652344-56.113281-10.65625-82.820312 0-9.121094 3.640624-15.015625 12.335937-15.015625 22.15625v65.003906h-156.511719v-43.058594h111.730469c10.703125 0 19.40625-8.707031 19.40625-19.40625v-26.675781c0-10.703125-8.703125-19.410157-19.40625-19.410157h-111.730469v-39.859374h123.636719c4.144531 0 7.5-3.355469 7.5-7.5v-93.222657l74.023437-26.140625c5.015625-1.773437 10.542969-1.773437 15.558594 0l74.019531 26.140625v93.222657c0 4.144531 3.355469 7.5 7.5 7.5h123.640625v39.859374zm-197.351562-99.117187h-8.085938v-15.175781c0-4.144532-3.355469-7.5-7.5-7.5-4.140625 0-7.5 3.355468-7.5 7.5v22.675781c0 4.140625 3.359375 7.5 7.5 7.5h15.585938c4.144531 0 7.5-3.359375 7.5-7.5 0-4.144531-3.355469-7.5-7.5-7.5zm18.378906 78.40625h-67.929688c-4.144531 0-7.5 3.355469-7.5 7.5 0 4.140625 3.355469 7.5 7.5 7.5h67.929688c4.144531 0 7.5-3.359375 7.5-7.5 0-4.144531-3.355469-7.5-7.5-7.5zm-58.425782 91.527344c4.140626 0 7.5-3.359375 7.5-7.5v-9.910157c0-4.140624-3.359374-7.5-7.5-7.5-4.144531 0-7.5 3.359376-7.5 7.5v9.910157c0 4.144531 3.355469 7.5 7.5 7.5zm48.921876-24.910157c-4.140626 0-7.5 3.359376-7.5 7.5v9.910157c0 4.140625 3.359374 7.5 7.5 7.5 4.144531 0 7.5-3.359375 7.5-7.5v-9.910157c0-4.140624-3.355469-7.5-7.5-7.5zm0 0" fill="#FFFFFF"/></svg>
