<?xml version="1.0" encoding="iso-8859-1"?>
<!-- Generator: Adobe Illustrator 19.0.0, SVG Export Plug-In . SVG Version: 6.00 Build 0)  -->
<svg xmlns="http://www.w3.org/2000/svg" xmlns:xlink="http://www.w3.org/1999/xlink" version="1.1" id="Capa_1" x="0px" y="0px" viewBox="0 0 496.941 496.941" style="enable-background:new 0 0 496.941 496.941;" xml:space="preserve" width="512px" height="512px">
<g>
	<g>
		<g>
			<path d="M107.671,418.635H86.588c17.318-6.023,30.118-21.835,30.118-41.412c0-24.094-19.576-43.671-43.671-43.671     s-43.671,19.576-43.671,43.671c0,19.576,12.8,35.388,30.118,41.412H37.647C16.565,418.635,0,435.953,0,456.282v33.129     c0,4.518,3.012,7.529,7.529,7.529h130.259c4.518,0,7.529-3.012,7.529-7.529v-33.129C145.318,435.2,128,418.635,107.671,418.635z      M44.424,377.224c0-15.812,12.8-28.612,28.612-28.612s28.612,12.8,28.612,28.612s-12.8,28.612-28.612,28.612     S44.424,392.282,44.424,377.224z M15.059,481.882v-25.6c0-12.8,10.541-22.588,22.588-22.588h69.271     c12.8,0,22.588,10.541,22.588,22.588v25.6H15.059z" fill="#FFFFFF"/>
			<path d="M283.106,418.635h-21.082c17.318-6.023,30.118-21.835,30.118-41.412c0-24.094-19.576-43.671-43.671-43.671     S204.8,353.129,204.8,377.224c0,19.576,12.8,35.388,30.118,41.412h-21.082c-21.082,0-37.647,17.318-37.647,37.647v33.129     c0,4.518,3.012,7.529,7.529,7.529h130.259c4.518,0,7.529-3.012,7.529-7.529v-33.129     C320.753,435.2,304.188,418.635,283.106,418.635z M219.859,377.224c0-15.812,12.8-28.612,28.612-28.612     s28.612,12.8,28.612,28.612s-12.8,28.612-28.612,28.612S219.859,392.282,219.859,377.224z M305.694,481.882H191.247v-25.6     c0-12.8,10.541-22.588,22.588-22.588h69.271c12.8,0,22.588,10.541,22.588,22.588V481.882z" fill="#FFFFFF"/>
			<path d="M459.294,418.635h-21.082c17.318-6.023,30.118-21.835,30.118-41.412c0-24.094-19.576-43.671-43.671-43.671     s-43.671,19.576-43.671,43.671c0,19.576,12.8,35.388,30.118,41.412h-21.082c-21.082,0-37.647,17.318-37.647,37.647v33.129     c0,4.518,3.012,7.529,7.529,7.529h129.506c4.518,0,7.529-3.012,7.529-7.529v-33.129     C496.941,435.2,479.623,418.635,459.294,418.635z M396.047,377.224c0-15.812,12.8-28.612,28.612-28.612     s28.612,12.8,28.612,28.612s-12.8,28.612-28.612,28.612S396.047,392.282,396.047,377.224z M481.882,481.882h-115.2v-25.6     c0-12.8,10.541-22.588,22.588-22.588h70.024c12.8,0,22.588,10.541,22.588,22.588V481.882z" fill="#FFFFFF"/>
			<path d="M248.471,83.576c22.588,0,41.412-18.824,41.412-42.165S271.059,0,248.471,0s-41.412,18.824-41.412,42.165     C207.059,65.506,225.882,83.576,248.471,83.576z M248.471,15.059c14.306,0,26.353,12.047,26.353,27.106     c0,15.059-12.047,27.106-26.353,27.106s-26.353-12.047-26.353-27.106C222.118,27.106,234.165,15.059,248.471,15.059z" fill="#FFFFFF"/>
			<path d="M369.694,240.941c3.012,0,5.271-1.506,6.776-3.765l23.341-42.918c1.506-2.259,1.506-5.271,0-7.529     c-1.506-2.259-3.765-3.765-6.776-3.765h-77.553v-55.718c0-23.341-17.318-42.918-37.647-42.918h-57.977     c-21.082,0-37.647,18.824-37.647,42.918v55.718h-78.306c-3.012,0-5.271,1.506-6.776,3.765c-1.506,2.259-1.506,5.271,0,7.529     l23.341,42.918c1.506,2.259,3.765,3.765,6.776,3.765h9.788l30.871,145.318c0.753,3.765,4.518,6.776,9.035,6.024     c3.765-0.753,6.776-4.518,6.024-9.035l-30.118-142.306h192l-30.118,142.306c-0.753,3.765,1.506,8.282,6.024,9.035     c3.765,0.753,8.282-1.506,9.035-6.023l30.118-145.318H369.694z M219.106,99.388h57.976c12.8,0,22.588,12.047,22.588,27.859     v55.718h-9.788v-11.294c0-4.518-3.012-7.529-7.529-7.529c-4.518,0-7.529,3.012-7.529,7.529v11.294h-52.706v-11.294     c0-4.518-3.012-7.529-7.529-7.529c-4.518,0-7.529,3.012-7.529,7.529v11.294h-9.788v-55.718h-0.753     C196.518,112.188,207.059,99.388,219.106,99.388z M131.765,225.882l-15.059-27.859h263.529l-15.059,27.859H131.765z" fill="#FFFFFF"/>
		</g>
	</g>
</g>
<g>
</g>
<g>
</g>
<g>
</g>
<g>
</g>
<g>
</g>
<g>
</g>
<g>
</g>
<g>
</g>
<g>
</g>
<g>
</g>
<g>
</g>
<g>
</g>
<g>
</g>
<g>
</g>
<g>
</g>
</svg>
