<?xml version="1.0" encoding="iso-8859-1"?>
<!-- Generator: Adobe Illustrator 17.1.0, SVG Export Plug-In . SVG Version: 6.00 Build 0)  -->
<!DOCTYPE svg PUBLIC "-//W3C//DTD SVG 1.1//EN" "http://www.w3.org/Graphics/SVG/1.1/DTD/svg11.dtd">
<svg xmlns="http://www.w3.org/2000/svg" xmlns:xlink="http://www.w3.org/1999/xlink" version="1.1" id="Capa_1" x="0px" y="0px" viewBox="0 0 180.667 180.667" style="enable-background:new 0 0 180.667 180.667;" xml:space="preserve" width="512px" height="512px">
<path d="M178.167,170.299H2.5c-1.381,0-2.5-1.119-2.5-2.5V12.867c0-1.381,1.119-2.5,2.5-2.5h76.314  c1.381,0,2.5,1.119,2.5,2.5v51.064h96.852c1.381,0,2.5,1.119,2.5,2.5v101.368C180.667,169.18,179.547,170.299,178.167,170.299z   M159.788,165.299h15.878V68.931H81.314v96.368h15.878v-59.191c0-1.381,1.119-2.5,2.5-2.5h57.595c1.381,0,2.5,1.119,2.5,2.5V165.299  z M102.193,165.299h52.595v-4.61h-52.595V165.299z M5,165.299h71.314V15.367H5V165.299z M102.193,155.689h52.595v-5.718h-52.595  V155.689z M102.193,144.971h52.595v-5.718h-52.595V144.971z M102.193,134.252h52.595v-5.718h-52.595V134.252z M102.193,123.534  h52.595v-5.718h-52.595V123.534z M102.193,112.816h52.595v-4.208h-52.595V112.816z M55.59,148.003H25.724  c-1.381,0-2.5-1.119-2.5-2.5v-39.366c0-1.381,1.119-2.5,2.5-2.5H55.59c1.381,0,2.5,1.119,2.5,2.5v39.366  C58.09,146.884,56.971,148.003,55.59,148.003z M43.157,143.003h9.933v-34.366h-9.933V143.003z M28.224,143.003h9.934v-34.366h-9.934  V143.003z M55.59,76.189H25.724c-1.381,0-2.5-1.119-2.5-2.5V34.323c0-1.381,1.119-2.5,2.5-2.5H55.59c1.381,0,2.5,1.119,2.5,2.5  v39.366C58.09,75.07,56.971,76.189,55.59,76.189z M43.157,71.189h9.933V36.823h-9.933V71.189z M28.224,71.189h9.934V36.823h-9.934  V71.189z" fill="#FFFFFF"/>
<g>
</g>
<g>
</g>
<g>
</g>
<g>
</g>
<g>
</g>
<g>
</g>
<g>
</g>
<g>
</g>
<g>
</g>
<g>
</g>
<g>
</g>
<g>
</g>
<g>
</g>
<g>
</g>
<g>
</g>
</svg>
