<?xml version="1.0"?>
<svg xmlns="http://www.w3.org/2000/svg" xmlns:xlink="http://www.w3.org/1999/xlink" version="1.1" id="Capa_1" x="0px" y="0px" viewBox="0 0 512 512" style="enable-background:new 0 0 512 512;" xml:space="preserve" width="512px" height="512px" class=""><g><path style="fill:#53A3F9" d="M257,0C116.302,0,0,114.3,0,255s116.302,257,257,257s255-116.3,255-257S397.698,0,257,0z" data-original="#FEDB41" class="active-path" data-old_color="#007AFF"/><path style="fill:#2A8FFD" d="M512,255c0,140.7-114.302,257-255,257V0C397.698,0,512,114.3,512,255z" data-original="#FFCC33" class="" data-old_color="#007AFF"/><path style="fill:#1985FB" d="M257,60C149.598,60,60,147.599,60,255s89.598,197,197,197s195-89.599,195-197S364.402,60,257,60z" data-original="#FEA832" class="" data-old_color="#007AFF"/><path style="fill:#007AFF" d="M452,255c0,107.401-87.598,197-195,197V60C364.402,60,452,147.599,452,255z" data-original="#FE9923" class="" data-old_color="#0044FF"/><path style="fill:#53A3F9" d="M347,341c-24.902,28.801-58.499,39.901-90,34.801c-35.098-5.7-69.2-30.901-84.5-73.801H150  c-19.797,0-19.797-30,0-30h16.201c-1.501-15.601-1.501-16.399,0-32H150c-8.401,0-15-6.599-15-15s6.599-15,15-15h22.5  c15.3-43.2,49.999-67.2,84.5-72.599c32.402-5.101,66.599,6.299,90,33.6c12.898,15-9.602,34.499-22.8,19.499  c-17.402-20.4-43.198-28.799-67.2-22.798C237.499,172.2,217.2,185.7,205.499,210H272c19.797,0,19.797,30,0,30h-75.799  c-1.501,12.001-1.501,19.999,0,32H272c19.797,0,19.797,30,0,30h-66.501c11.7,24,32,37.8,51.501,42.299  c24.001,6,49.797-2.399,67.2-22.798C337.398,306.501,359.898,326,347,341z" data-original="#FEDB41" class="active-path" data-old_color="#007AFF"/><g>
	<path style="fill:#2A8FFD" d="M272,302h-15v-30h15C291.797,272,291.797,302,272,302z" data-original="#FFCC33" class="" data-old_color="#007AFF"/>
	<path style="fill:#2A8FFD" d="M272,240h-15v-30h15C291.797,210,291.797,240,272,240z" data-original="#FFCC33" class="" data-old_color="#007AFF"/>
	<path style="fill:#2A8FFD" d="M347,341c-24.902,28.801-58.499,39.901-90,34.801V344.3c24.001,6,49.797-2.399,67.2-22.798   C337.398,306.501,359.898,326,347,341z" data-original="#FFCC33" class="" data-old_color="#007AFF"/>
	<path style="fill:#2A8FFD" d="M257,167.701v-30.3c32.402-5.101,66.599,6.299,90,33.6c12.898,15-9.602,34.499-22.8,19.499   C306.797,170.099,281.001,161.7,257,167.701z" data-original="#FFCC33" class="" data-old_color="#007AFF"/>
</g></g> </svg>
